<svg width="21" height="21" viewBox="0 0 21 21" fill="none" xmlns="http://www.w3.org/2000/svg">
<path d="M10.1625 12.3264L2.58894 19.9C2.30557 20.1834 1.94492 20.3251 1.50699 20.3251C1.06906 20.3251 0.708415 20.1834 0.425049 19.9C0.141683 19.6167 0 19.256 0 18.8181C0 18.3802 0.141683 18.0195 0.425049 17.7362L7.99866 10.1625L0.425049 2.58894C0.141683 2.30557 0 1.94492 0 1.50699C0 1.06906 0.141683 0.708415 0.425049 0.425049C0.708415 0.141683 1.06906 0 1.50699 0C1.94492 0 2.30557 0.141683 2.58894 0.425049L10.1625 7.99866L17.7362 0.425049C18.0195 0.141683 18.3802 0 18.8181 0C19.256 0 19.6167 0.141683 19.9 0.425049C20.1834 0.708415 20.3251 1.06906 20.3251 1.50699C20.3251 1.94492 20.1834 2.30557 19.9 2.58894L12.3264 10.1625L19.9 17.7362C20.1834 18.0195 20.3251 18.3802 20.3251 18.8181C20.3251 19.256 20.1834 19.6167 19.9 19.9C19.6167 20.1834 19.256 20.3251 18.8181 20.3251C18.3802 20.3251 18.0195 20.1834 17.7362 19.9L10.1625 12.3264Z" fill="#D4AF37"/>
</svg>
