<svg width="56" height="56" viewBox="0 0 56 56" fill="none" xmlns="http://www.w3.org/2000/svg">
<path d="M28.5 21.4062C26.8838 21.4062 25.3339 22.0483 24.1911 23.1911C23.0483 24.3339 22.4063 25.8838 22.4062 27.5C22.4063 29.1162 23.0483 30.6661 24.1911 31.8089C25.3339 32.9517 26.8838 33.5938 28.5 33.5938C30.1162 33.5938 31.6661 32.9517 32.8089 31.8089C33.9517 30.6661 34.5938 29.1162 34.5938 27.5C34.5938 25.8838 33.9517 24.3339 32.8089 23.1911C31.6661 22.0483 30.1162 21.4063 28.5 21.4062Z" fill="white"/>
<path fill-rule="evenodd" clip-rule="evenodd" d="M18.6938 10.7787C25.2113 10.0567 31.7887 10.0567 38.3063 10.7787C41.8669 11.1762 44.7375 13.9794 45.1556 17.5531C45.928 24.1619 45.928 30.8381 45.1556 37.4469C44.7375 41.0206 41.8669 43.8237 38.3081 44.2231C31.7899 44.9453 25.2119 44.9453 18.6938 44.2231C15.1331 43.8237 12.2625 41.0206 11.8444 37.4487C11.0719 30.8394 11.0719 24.1625 11.8444 17.5531C12.2625 13.9794 15.1331 11.1762 18.6938 10.7787ZM37.875 16.25C37.3777 16.25 36.9008 16.4475 36.5492 16.7992C36.1975 17.1508 36 17.6277 36 18.125C36 18.6223 36.1975 19.0992 36.5492 19.4508C36.9008 19.8025 37.3777 20 37.875 20C38.3723 20 38.8492 19.8025 39.2008 19.4508C39.5525 19.0992 39.75 18.6223 39.75 18.125C39.75 17.6277 39.5525 17.1508 39.2008 16.7992C38.8492 16.4475 38.3723 16.25 37.875 16.25ZM19.5938 27.5C19.5938 25.1379 20.5321 22.8726 22.2023 21.2023C23.8726 19.5321 26.1379 18.5937 28.5 18.5937C30.8621 18.5937 33.1274 19.5321 34.7977 21.2023C36.4679 22.8726 37.4063 25.1379 37.4063 27.5C37.4063 29.8621 36.4679 32.1274 34.7977 33.7977C33.1274 35.4679 30.8621 36.4062 28.5 36.4062C26.1379 36.4062 23.8726 35.4679 22.2023 33.7977C20.5321 32.1274 19.5938 29.8621 19.5938 27.5Z" fill="white"/>
<rect x="2" y="2" width="52" height="52" stroke="#D9D992" stroke-width="4"/>
</svg>
