<svg width="45" height="45" viewBox="0 0 45 45" fill="none" xmlns="http://www.w3.org/2000/svg">
<path d="M22.5 16.4062C20.8838 16.4062 19.3339 17.0483 18.1911 18.1911C17.0483 19.3339 16.4063 20.8838 16.4062 22.5C16.4063 24.1162 17.0483 25.6661 18.1911 26.8089C19.3339 27.9517 20.8838 28.5938 22.5 28.5938C24.1162 28.5938 25.6661 27.9517 26.8089 26.8089C27.9517 25.6661 28.5938 24.1162 28.5938 22.5C28.5938 20.8838 27.9517 19.3339 26.8089 18.1911C25.6661 17.0483 24.1162 16.4063 22.5 16.4062Z" fill="white"/>
<path fill-rule="evenodd" clip-rule="evenodd" d="M12.6938 5.77875C19.2113 5.05674 25.7887 5.05674 32.3063 5.77875C35.8669 6.17625 38.7375 8.97937 39.1556 12.5531C39.928 19.1619 39.928 25.8381 39.1556 32.4469C38.7375 36.0206 35.8669 38.8237 32.3081 39.2231C25.7899 39.9453 19.2119 39.9453 12.6938 39.2231C9.13313 38.8237 6.26251 36.0206 5.84438 32.4487C5.07185 25.8394 5.07185 19.1625 5.84438 12.5531C6.26251 8.97937 9.13313 6.17625 12.6938 5.77875ZM31.875 11.25C31.3777 11.25 30.9008 11.4475 30.5492 11.7992C30.1975 12.1508 30 12.6277 30 13.125C30 13.6223 30.1975 14.0992 30.5492 14.4508C30.9008 14.8025 31.3777 15 31.875 15C32.3723 15 32.8492 14.8025 33.2008 14.4508C33.5525 14.0992 33.75 13.6223 33.75 13.125C33.75 12.6277 33.5525 12.1508 33.2008 11.7992C32.8492 11.4475 32.3723 11.25 31.875 11.25ZM13.5938 22.5C13.5938 20.1379 14.5321 17.8726 16.2023 16.2023C17.8726 14.5321 20.1379 13.5937 22.5 13.5937C24.8621 13.5937 27.1274 14.5321 28.7977 16.2023C30.4679 17.8726 31.4063 20.1379 31.4063 22.5C31.4063 24.8621 30.4679 27.1274 28.7977 28.7977C27.1274 30.4679 24.8621 31.4062 22.5 31.4062C20.1379 31.4062 17.8726 30.4679 16.2023 28.7977C14.5321 27.1274 13.5938 24.8621 13.5938 22.5Z" fill="white"/>
</svg>
