<svg width="98" height="67" viewBox="0 0 98 67" fill="none" xmlns="http://www.w3.org/2000/svg">
<path d="M2.59342 66.2772C2.75002 66.8068 3.30633 67.1092 3.83594 66.9526L12.4665 64.4005C12.9961 64.2439 13.2985 63.6876 13.1419 63.158C12.9853 62.6284 12.429 62.326 11.8994 62.4826L4.22775 64.7511L1.9592 57.0795C1.80259 56.5499 1.2463 56.2475 0.716687 56.4041C0.18707 56.5607 -0.115307 57.117 0.0413022 57.6467L2.59342 66.2772ZM97.5524 0.993652L97.4399 -1.58522e-06C73.9117 2.66336 56.6286 7.15261 42.0016 16.9784C27.3771 26.8025 15.5176 41.887 2.67377 65.5161L3.55237 65.9937L4.43097 66.4712C17.2108 42.9599 28.8819 28.2011 43.1168 18.6386C57.3492 9.07791 74.2543 4.63735 97.6648 1.98731L97.5524 0.993652Z" fill="#D4AF37"/>
</svg>
