<svg width="40" height="176" viewBox="0 0 40 176" fill="none" xmlns="http://www.w3.org/2000/svg">
<path d="M20.3705 175.016C19.2998 175.287 18.2119 174.639 17.9406 173.568L13.5198 156.12C13.2485 155.049 13.8966 153.961 14.9674 153.69C16.0381 153.419 17.126 154.067 17.3973 155.137L21.3269 170.647L36.8368 166.718C37.9076 166.447 38.9955 167.095 39.2668 168.165C39.538 169.236 38.8899 170.324 37.8192 170.595L20.3705 175.016ZM2.87932 3.07728L1.26453 4.25731C0.966934 3.85007 0.779468 3.60333 0.675173 3.47645C0.603725 3.38953 0.63943 3.44304 0.736552 3.52846C0.768283 3.55637 0.836074 3.61403 0.932644 3.67769C1.00529 3.72557 1.2257 3.86662 1.55009 3.94429C1.89729 4.02742 2.64212 4.08755 3.30471 3.52078C3.88305 3.02608 3.97197 2.40096 3.99087 2.20257C4.01419 1.95788 3.98496 1.76881 3.97271 1.6973C3.95738 1.60775 3.93894 1.54063 3.92932 1.50761C3.91032 1.44236 3.89465 1.40533 3.89846 1.41481C3.90413 1.42889 3.92806 1.48442 3.98401 1.60055C4.09243 1.82556 4.2639 2.16068 4.50393 2.62044C5.45319 4.43861 7.31096 7.89325 9.65819 12.6264C14.3556 22.0986 21.0486 36.7587 26.6251 54.2192C37.745 89.0363 44.5888 135.506 21.5975 174.101L19.8793 173.077L18.1611 172.054C40.2448 134.983 33.8386 89.9527 22.8147 55.4362C17.3194 38.2299 10.717 23.7648 6.07465 14.4035C3.75196 9.71987 1.92868 6.33068 0.958114 4.4717C0.718197 4.01218 0.519787 3.62593 0.380469 3.33677C0.312556 3.19582 0.243157 3.04606 0.187537 2.90781C0.160709 2.84113 0.122406 2.74117 0.0889658 2.62638C0.0793967 2.59353 -0.0317517 2.2498 0.00891144 1.8231C0.0288953 1.6134 0.120987 0.980352 0.704623 0.481118C1.37251 -0.0901801 2.12475 -0.0311798 2.48151 0.0542411C2.81547 0.134202 3.04758 0.280956 3.1341 0.337985C3.24454 0.410786 3.32837 0.481024 3.37834 0.524969C3.54839 0.674539 3.69208 0.84747 3.76519 0.936412C3.95002 1.16125 4.19795 1.49199 4.4941 1.89724L2.87932 3.07728Z" fill="#D4AF37"/>
</svg>
