<svg width="40" height="176" viewBox="0 0 40 176" fill="none" xmlns="http://www.w3.org/2000/svg">
<path d="M18.958 175.016C20.0287 175.287 21.1166 174.639 21.3879 173.568L25.8087 156.12C26.08 155.049 25.4319 153.961 24.3611 153.69C23.2904 153.419 22.2025 154.067 21.9312 155.137L18.0016 170.647L2.49167 166.718C1.42093 166.447 0.33301 167.095 0.0617281 168.165C-0.209552 169.236 0.438536 170.324 1.50928 170.595L18.958 175.016ZM36.4492 3.07728L38.0639 4.25731C38.3615 3.85007 38.549 3.60333 38.6533 3.47645C38.7248 3.38953 38.6891 3.44304 38.5919 3.52846C38.5602 3.55637 38.4924 3.61403 38.3958 3.67769C38.3232 3.72557 38.1028 3.86662 37.7784 3.94429C37.4312 4.02742 36.6864 4.08755 36.0238 3.52078C35.4454 3.02608 35.3565 2.40096 35.3376 2.20257C35.3143 1.95788 35.3435 1.76881 35.3558 1.6973C35.3711 1.60775 35.3895 1.54063 35.3992 1.50761C35.4182 1.44236 35.4338 1.40533 35.43 1.41481C35.4244 1.42889 35.4004 1.48442 35.3445 1.60055C35.2361 1.82556 35.0646 2.16068 34.8245 2.62044C33.8753 4.43861 32.0175 7.89325 29.6703 12.6264C24.9729 22.0986 18.2799 36.7587 12.7034 54.2192C1.5835 89.0363 -5.26033 135.506 17.7309 174.101L19.4492 173.077L21.1674 172.054C-0.916285 134.983 5.48988 89.9527 16.5138 55.4362C22.0091 38.2299 28.6114 23.7648 33.2538 14.4035C35.5765 9.71987 37.3998 6.33068 38.3704 4.4717C38.6103 4.01218 38.8087 3.62593 38.948 3.33677C39.0159 3.19582 39.0853 3.04606 39.1409 2.90781C39.1678 2.84113 39.2061 2.74117 39.2395 2.62638C39.2491 2.59353 39.3602 2.2498 39.3196 1.8231C39.2996 1.6134 39.2075 0.980352 38.6239 0.481118C37.956 -0.0901801 37.2037 -0.0311798 36.847 0.0542411C36.513 0.134202 36.2809 0.280956 36.1944 0.337985C36.0839 0.410786 36.0001 0.481024 35.9501 0.524969C35.7801 0.674539 35.6364 0.84747 35.5633 0.936412C35.3785 1.16125 35.1305 1.49199 34.8344 1.89724L36.4492 3.07728Z" fill="#D4AF37"/>
</svg>
