<svg width="98" height="67" viewBox="0 0 98 67" fill="none" xmlns="http://www.w3.org/2000/svg">
<path d="M95.0714 66.2772C94.9148 66.8068 94.3585 67.1092 93.8289 66.9526L85.1984 64.4005C84.6687 64.2439 84.3664 63.6876 84.523 63.158C84.6796 62.6284 85.2359 62.326 85.7655 62.4826L93.4371 64.7511L95.7057 57.0795C95.8623 56.5499 96.4186 56.2475 96.9482 56.4041C97.4778 56.5607 97.7802 57.117 97.6236 57.6467L95.0714 66.2772ZM0.112488 0.993652L0.224968 -1.58522e-06C23.7531 2.66336 41.0362 7.15261 55.6633 16.9784C70.2877 26.8025 82.1473 41.887 94.9911 65.5161L94.1125 65.9937L93.2339 66.4712C80.4541 42.9599 68.783 28.2011 54.548 18.6386C40.3156 9.07791 23.4105 4.63735 7.21723e-06 1.98731L0.112488 0.993652Z" fill="#D4AF37"/>
</svg>
