<svg width="56" height="56" viewBox="0 0 56 56" fill="none" xmlns="http://www.w3.org/2000/svg">
<path fill-rule="evenodd" clip-rule="evenodd" d="M28.5 12.5C30.1031 12.5 31.7475 12.5413 33.3412 12.6088L35.2238 12.6987L37.0256 12.8056L38.7131 12.92L40.2544 13.04C41.9272 13.1673 43.5015 13.8808 44.6999 15.0549C45.8983 16.2289 46.644 17.7882 46.8056 19.4581L46.8806 20.255L47.0213 21.9612C47.1525 23.7294 47.25 25.6569 47.25 27.5C47.25 29.3431 47.1525 31.2706 47.0213 33.0388L46.8806 34.745L46.8056 35.5419C46.644 37.2121 45.898 38.7716 44.6992 39.9457C43.5004 41.1198 41.9257 41.8331 40.2525 41.96L38.715 42.0781L37.0275 42.1944L35.2238 42.3012L33.3412 42.3912C31.7284 42.4611 30.1143 42.4974 28.5 42.5C26.8857 42.4974 25.2716 42.4611 23.6588 42.3912L21.7762 42.3012L19.9744 42.1944L18.2869 42.0781L16.7456 41.96C15.0728 41.8327 13.4985 41.1192 12.3001 39.9451C11.1017 38.7711 10.356 37.2118 10.1944 35.5419L10.1194 34.745L9.97875 33.0388C9.83594 31.1959 9.75964 29.3484 9.75 27.5C9.75 25.6569 9.8475 23.7294 9.97875 21.9612L10.1194 20.255L10.1944 19.4581C10.3559 17.7885 11.1013 16.2295 12.2994 15.0554C13.4974 13.8814 15.0712 13.1677 16.7438 13.04L18.2831 12.92L19.9706 12.8056L21.7744 12.6987L23.6569 12.6088C25.2703 12.5389 26.885 12.5026 28.5 12.5ZM24.75 22.9531V32.0469C24.75 32.9131 25.6875 33.4531 26.4375 33.0219L34.3125 28.475C34.4839 28.3764 34.6262 28.2343 34.7252 28.0631C34.8241 27.892 34.8763 27.6977 34.8763 27.5C34.8763 27.3023 34.8241 27.108 34.7252 26.9369C34.6262 26.7657 34.4839 26.6236 34.3125 26.525L26.4375 21.98C26.2664 21.8812 26.0724 21.8292 25.8748 21.8293C25.6773 21.8293 25.4832 21.8814 25.3122 21.9802C25.1411 22.079 24.9991 22.2211 24.9005 22.3922C24.8018 22.5634 24.7499 22.7575 24.75 22.955V22.9531Z" fill="white"/>
<rect x="2" y="2" width="52" height="52" stroke="#D9D992" stroke-width="4"/>
</svg>
