<svg width="45" height="45" viewBox="0 0 45 45" fill="none" xmlns="http://www.w3.org/2000/svg">
<path fill-rule="evenodd" clip-rule="evenodd" d="M22.5 7.5C24.1031 7.5 25.7475 7.54125 27.3412 7.60875L29.2238 7.69875L31.0256 7.80563L32.7131 7.92L34.2544 8.04C35.9272 8.1673 37.5015 8.88081 38.6999 10.0549C39.8983 11.2289 40.644 12.7882 40.8056 14.4581L40.8806 15.255L41.0213 16.9612C41.1525 18.7294 41.25 20.6569 41.25 22.5C41.25 24.3431 41.1525 26.2706 41.0213 28.0388L40.8806 29.745L40.8056 30.5419C40.644 32.2121 39.898 33.7716 38.6992 34.9457C37.5004 36.1198 35.9257 36.8331 34.2525 36.96L32.715 37.0781L31.0275 37.1944L29.2238 37.3012L27.3412 37.3912C25.7284 37.4611 24.1143 37.4974 22.5 37.5C20.8857 37.4974 19.2716 37.4611 17.6588 37.3912L15.7762 37.3012L13.9744 37.1944L12.2869 37.0781L10.7456 36.96C9.07278 36.8327 7.4985 36.1192 6.30008 34.9451C5.10167 33.7711 4.35598 32.2118 4.19437 30.5419L4.11938 29.745L3.97875 28.0388C3.83594 26.1959 3.75964 24.3484 3.75 22.5C3.75 20.6569 3.8475 18.7294 3.97875 16.9612L4.11938 15.255L4.19437 14.4581C4.35592 12.7885 5.10133 11.2295 6.29937 10.0554C7.4974 8.88142 9.07123 8.16772 10.7438 8.04L12.2831 7.92L13.9706 7.80563L15.7744 7.69875L17.6569 7.60875C19.2703 7.53886 20.885 7.50261 22.5 7.5ZM18.75 17.9531V27.0469C18.75 27.9131 19.6875 28.4531 20.4375 28.0219L28.3125 23.475C28.4839 23.3764 28.6262 23.2343 28.7252 23.0631C28.8241 22.892 28.8763 22.6977 28.8763 22.5C28.8763 22.3023 28.8241 22.108 28.7252 21.9369C28.6262 21.7657 28.4839 21.6236 28.3125 21.525L20.4375 16.98C20.2664 16.8812 20.0724 16.8292 19.8748 16.8293C19.6773 16.8293 19.4832 16.8814 19.3122 16.9802C19.1411 17.079 18.9991 17.2211 18.9005 17.3922C18.8018 17.5634 18.7499 17.7575 18.75 17.955V17.9531Z" fill="white"/>
</svg>
